<svg id="Raggruppa_9" data-name="Raggruppa 9" xmlns="http://www.w3.org/2000/svg" width="25.225" height="17.512" viewBox="0 0 25.225 17.512">
  <path id="Tracciato_9424" data-name="Tracciato 9424" d="M2181.151,2250.665a4.259,4.259,0,0,0,0-5.418.663.663,0,0,1,.069-.9h0a.658.658,0,0,1,.955.063,5.487,5.487,0,0,1,0,7.111.659.659,0,0,1-.955.063h0A.662.662,0,0,1,2181.151,2250.665Z" transform="translate(-2165.201 -2239.205)" fill="#333"/>
  <path id="Tracciato_9425" data-name="Tracciato 9425" d="M2189.438,2246.926a7.6,7.6,0,0,0,0-10.3.659.659,0,0,1,.046-.924h0a.661.661,0,0,1,.932.037,8.66,8.66,0,0,1,0,12.09.661.661,0,0,1-.932.037h0a.658.658,0,0,1-.046-.94Z" transform="translate(-2171.109 -2233.025)" fill="#333"/>
  <path id="Tracciato_9426" data-name="Tracciato 9426" d="M2198.119,2244a.658.658,0,0,1-.031-.912,11.121,11.121,0,0,0,0-15.159.658.658,0,0,1,.031-.912l.077-.074a.659.659,0,0,1,.95.028,12.487,12.487,0,0,1,0,17.08.662.662,0,0,1-.949.029Z" transform="translate(-2177.298 -2226.75)" fill="#333"/>
  <path id="Tracciato_9427" data-name="Tracciato 9427" d="M2132.361,2232.876h-6.008a.753.753,0,0,0-.753.753v5.52a.753.753,0,0,0,.753.753h6.008a.752.752,0,0,1,.473.166l5.643,4.545a.752.752,0,0,0,1.226-.587v-15.278a.752.752,0,0,0-1.226-.587l-5.635,4.551A.755.755,0,0,1,2132.361,2232.876Z" transform="translate(-2125.6 -2227.638)" fill="#333"/>
</svg>
